<svg xmlns="http://www.w3.org/2000/svg" xmlns:xlink="http://www.w3.org/1999/xlink" viewBox="0 0 943.77 626.69"><defs><style>.cls-1{fill:none;stroke:#efeeee;stroke-miterlimit:10;}.cls-2{clip-path:url(#clip-path);}.cls-3{fill:#efeeee;}</style><clipPath id="clip-path" transform="translate(186.25 127.25)"><rect class="cls-1" x="-1.08" y="-1.06" width="750" height="500"/></clipPath></defs><title>Sans titre - 1</title><g id="portee"><g class="cls-2"><path class="cls-1" d="M-185.81,448.5C-81.55,261,114.92,214.79,200.13,227.41c48,7.1,91.68,26.43,136.57,42s94.39,27.6,142.05,19.1,91-43.8,85.93-83.25c-4.68-36.44-45.35-61.63-81.79-83.17S407.28,72.52,408,35.89c.59-30.74,30.7-56.6,64.77-69.91s72.36-17.13,109.08-24.41C645.29-71,705.45-94.48,757.25-126.83" transform="translate(186.25 127.25)"/><path class="cls-1" d="M-161.49,452.18c98.23-179.29,287.37-225.39,370.31-212.77,46.72,7.1,89.23,26.43,132.92,42S433.62,309,480,300.49s88.57-43.8,83.64-83.25c-4.56-36.44-44.14-61.63-79.61-83.17s-73.59-49.55-72.91-86.18C411.7,17.15,441-8.71,474.17-22s70.42-17.13,106.16-24.41C642.1-59,700.65-82.48,751.07-114.83" transform="translate(186.25 127.25)"/><path class="cls-1" d="M-137.17,455.86c92.19-171.1,274-217.07,354.68-204.45,45.44,7.1,86.79,26.43,129.28,42s89.35,27.6,134.47,19.1,86.13-43.8,81.34-83.25c-4.44-36.44-42.93-61.63-77.43-83.17S413.6,96.52,414.26,59.89c.56-30.74,29.07-56.6,61.32-69.91s68.49-17.13,103.25-24.41c60.07-12.59,117-36.05,166.06-68.4" transform="translate(186.25 127.25)"/><path class="cls-1" d="M-112.84,459.55c86.15-162.93,260.66-208.76,339.05-196.14,44.15,7.1,84.33,26.43,125.63,42s86.83,27.6,130.67,19.1,83.71-43.8,79-83.25c-4.3-36.44-41.71-61.63-75.24-83.17s-69.55-49.55-68.9-86.18C418,41.15,445.65,15.29,477,2s66.56-17.13,100.34-24.41c58.38-12.59,113.72-36,161.37-68.4" transform="translate(186.25 127.25)"/><path class="cls-1" d="M-88.52,463.23C-8.41,308.49,158.79,262.79,234.9,275.41c42.88,7.1,81.89,26.43,122,42s84.31,27.6,126.88,19.1,81.28-43.8,76.75-83.25c-4.18-36.44-40.5-61.63-73.05-83.17s-67.54-49.55-66.91-86.18C421.08,53.15,448,27.29,478.41,14S543-3.15,575.84-10.43c56.68-12.59,110.41-36,156.68-68.4" transform="translate(186.25 127.25)"/><path class="cls-1" d="M-64.2,466.92c74.08-146.56,234-192.13,307.79-179.51,41.6,7.1,79.44,26.43,118.34,42S443.72,357,485,348.49s78.84-43.8,74.45-83.25c-4.05-36.44-39.29-61.63-70.87-83.17s-65.52-49.55-64.91-86.18c.51-30.74,26.61-56.6,56.13-69.91S542.51,8.85,574.34,1.57a422.05,422.05,0,0,0,152-68.4" transform="translate(186.25 127.25)"/><path class="cls-1" d="M-39.87,470.6c68-138.38,220.59-183.81,292.16-171.19,40.31,7.1,77,26.43,114.68,42s79.28,27.6,119.3,19.1,76.42-43.8,72.16-83.25c-3.93-36.44-38.08-61.63-68.69-83.17s-63.49-49.55-62.9-86.18c.49-30.74,25.78-56.6,54.39-69.91S542,20.85,572.84,13.57a403,403,0,0,0,147.31-68.4" transform="translate(186.25 127.25)"/><path class="cls-1" d="M-15.55,474.28C46.45,344.09,191.69,298.79,261,311.41c39,7.1,74.54,26.43,111,42s76.75,27.6,115.5,19.1,74-43.8,69.87-83.25c-3.81-36.44-36.87-61.63-66.51-83.17s-61.47-49.55-60.9-86.18c.48-30.74,25-56.6,52.67-69.91s58.83-17.13,88.69-24.41A384.75,384.75,0,0,0,714-42.83" transform="translate(186.25 127.25)"/></g><rect class="cls-1" x="185.17" y="126.19" width="750" height="500"/></g><g id="sol-treble"><path class="cls-3" d="M160.33,289.49a10.34,10.34,0,0,0-2.67,1.11c-1.74-2.85-3.38-5.55-4.82-7.9a61.72,61.72,0,0,0,2.63-6.5c1.8-6.39.22-10.49-1.16-14.52s-5.13-10.16-9.33-11.87a1.33,1.33,0,0,0-.81,0c-1.17.27-2.67,2.83-3,5.9-.84,8.34,1.83,14,6.05,20.78l.84,1.37c-3.51,7-8.45,16.37-5.29,25.5a18.77,18.77,0,0,0,9.15,10.4c3.86,1.89,9.26,2.63,13.53,1h0a17.44,17.44,0,0,0,3.83-2c2.31,3.81,3.92,6.45,4.15,6.84,7,11.35-4.84,14.89-7.51,12.86,1-.34,4.77-2.12,3.29-6.1-1.68-4.49-7.19-4.81-9.12-.78-2.51,5.23,4.37,13.09,12.86,8,3.92-2.35,6.71-7.08,2.54-13.74l-4.93-8.09a12.28,12.28,0,0,0,3.68-13.93C171.37,290.27,165.29,288.16,160.33,289.49Zm-12.52-15.06A18.54,18.54,0,0,1,145,265.5c-.26-3.11.07-8,2.71-8.8s4.25,3.12,4.38,7c.07,2,.13,3.93-1.48,8.61a38.32,38.32,0,0,1-1.67,3.87Zm16.69,39.11a13.66,13.66,0,0,1-10.37-.42c-5.54-2.66-7.37-7.6-7.43-12.13,0-4,1.38-8,3.64-12.87.5-1.06,1.11-2.36,1.73-3.72l4.3,7.09a11.09,11.09,0,0,0-2.27,14.12c2.34,3.59,5.93,4.7,8.41,3.95.2-.06.4-.16.39-.47s-.54-.37-.77-.36a5.4,5.4,0,0,1-2.08-.44,6.49,6.49,0,0,1-3.59-7.55,6.76,6.76,0,0,1,2.92-4.29c3.19,5.27,6.46,10.66,9.05,14.92A19.3,19.3,0,0,1,164.5,313.54Zm6.92-13.17c1.39,3.34,1.45,6.92-1.74,10-2.61-4.27-5.78-9.49-8.9-14.61A8.17,8.17,0,0,1,171.42,300.37Z" transform="translate(186.25 127.25)"/></g><g id="crroche-linked-small"><path class="cls-3" d="M543.06,347.44c.52,1-.4,2.52-2.06,3.4s-3.44.78-4-.21.4-2.51,2.06-3.39S542.53,346.45,543.06,347.44Z" transform="translate(186.25 127.25)"/><path class="cls-3" d="M559.76,344.49c.53,1-.39,2.51-2.06,3.39s-3.44.79-4-.2.39-2.52,2.06-3.4S559.24,343.5,559.76,344.49Z" transform="translate(186.25 127.25)"/><polygon class="cls-3" points="729.12 457.07 729.12 459.73 746.16 457.07 746.16 454.56 729.12 457.07"/><polygon class="cls-3" points="729.12 461.09 729.12 463.74 746.16 461.09 746.16 458.58 729.12 461.09"/><rect class="cls-3" x="729.12" y="457.07" width="0.33" height="18.23"/><rect class="cls-3" x="745.83" y="454.75" width="0.33" height="17.59"/></g><g id="croche-linked"><path class="cls-3" d="M205.37,296.69c.81,2.33-1.7,5.32-5.61,6.67s-7.73.55-8.53-1.79,1.7-5.32,5.61-6.67S204.57,294.35,205.37,296.69Z" transform="translate(186.25 127.25)"/><path class="cls-3" d="M242.62,295.91c.8,2.34-1.71,5.32-5.62,6.67s-7.73.55-8.53-1.79,1.71-5.32,5.61-6.66S241.81,293.58,242.62,295.91Z" transform="translate(186.25 127.25)"/><polygon class="cls-3" points="397.16 385.64 396.26 391.4 434.13 391.39 434.98 385.94 397.16 385.64"/><rect class="cls-3" x="207.83" y="258.21" width="0.73" height="40.03" transform="translate(231.45 98.58) rotate(8.83)"/><rect class="cls-3" x="244.97" y="258.81" width="0.73" height="38.62" transform="translate(231.87 92.88) rotate(8.83)"/></g><g id="croche-2"><path class="cls-3" d="M282.94,272.55c.32,2.62-3,5.17-7.36,5.69s-8.18-1.17-8.49-3.78,3-5.17,7.36-5.69S282.63,269.94,282.94,272.55Z" transform="translate(186.25 127.25)"/><rect class="cls-3" x="289.66" y="232.58" width="0.78" height="42.7" transform="translate(296.7 40.08) rotate(21.03)"/><path class="cls-3" d="M297.38,236l-2.63,6.85s9,8.7,6.37,15.48-4.6,9.24-4.6,9.24,6.87-6.28,7.43-14.8S296.53,241.58,297.38,236Z" transform="translate(186.25 127.25)"/></g><g id="croche"><path class="cls-3" d="M532.6,173.49c1.46,1.15,1.08,4.06-.84,6.49s-4.66,3.48-6.12,2.34-1.08-4.06.84-6.5S531.15,172.34,532.6,173.49Z" transform="translate(186.25 127.25)"/><rect class="cls-3" x="526.62" y="145.63" width="0.55" height="30.07" transform="translate(166.28 354.04) rotate(-23.85)"/><path class="cls-3" d="M521.62,148.05l2.09,4.73s8.8-.12,10.87,4.55a26.55,26.55,0,0,1,2.3,6.9s.31-6.54-3.65-11.07S524,151.28,521.62,148.05Z" transform="translate(186.25 127.25)"/></g><g id="guitar"><path class="cls-3" d="M439,390.92a6.26,6.26,0,0,0-.57-1.66l4.95-2.62a39,39,0,0,0,3.83,1.82c3.8,1.32,6.34.51,8.83-.18s6.32-2.74,7.51-5.22a.83.83,0,0,0,0-.49c-.12-.71-1.61-1.71-3.46-2-5-.81-8.53.6-12.78,2.91l-.86.46c-4.11-2.38-9.6-5.7-15.23-4.11a11.38,11.38,0,0,0-6.62,5.16,11.08,11.08,0,0,0-1.12,8.15h0a10.78,10.78,0,0,0,1.05,2.38l-4.28,2.27c-7.12,3.85-8.83-3.46-7.51-5,.17.62,1.11,3,3.57,2.2,2.78-.86,3.16-4.18.8-5.49-3.07-1.7-8.07,2.18-5.31,7.49,1.28,2.46,4,4.31,8.22,2l5.06-2.69a7.44,7.44,0,0,0,8.29,2.72C438.12,397.57,439.62,394,439,390.92Zm9.56-7a11.26,11.26,0,0,1,5.5-1.41c1.89-.05,4.82.33,5.23,1.95s-2,2.46-4.41,2.4a12.14,12.14,0,0,1-5.15-1.2,22.19,22.19,0,0,1-2.28-1.15Zm-24.25,8.69a8.3,8.3,0,0,1,.62-6.26,7.85,7.85,0,0,1,7.61-4.05c2.44.11,4.8,1.12,7.65,2.66l2.19,1.18-4.45,2.35a6.7,6.7,0,0,0-8.45-1.88c-2.26,1.28-3.06,3.42-2.69,4.94,0,.12.08.25.27.26s.24-.32.25-.46a3.24,3.24,0,0,1,.33-1.24,3.93,3.93,0,0,1,4.7-1.9,4.14,4.14,0,0,1,2.49,1.92L425.47,395A11.68,11.68,0,0,1,424.3,392.58Zm7.71,4.66a5,5,0,0,1-6-1.41l9.16-4.86A5,5,0,0,1,432,397.24Z" transform="translate(186.25 127.25)"/><path class="cls-3" d="M394,363.43c-1.54,0-2.78-2.11-2.76-4.7s1.29-4.67,2.84-4.66,2.78,2.12,2.76,4.7S395.51,363.45,394,363.43Z" transform="translate(186.25 127.25)"/><path class="cls-3" d="M386.08,359.19c-1.55,0-2.78-2.12-2.76-4.71s1.28-4.67,2.83-4.66,2.78,2.12,2.76,4.71S387.62,359.2,386.08,359.19Z" transform="translate(186.25 127.25)"/><path class="cls-3" d="M380.26,356.05c-1.54,0-2.78-2.11-2.76-4.7s1.29-4.67,2.83-4.66,2.79,2.12,2.77,4.7S381.81,356.07,380.26,356.05Z" transform="translate(186.25 127.25)"/><path class="cls-3" d="M386.65,385.57c-1.54,0-2.78-2.12-2.76-4.71s1.29-4.67,2.83-4.66,2.79,2.12,2.77,4.7S388.2,385.58,386.65,385.57Z" transform="translate(186.25 127.25)"/><polygon class="cls-3" points="601.65 501.94 598.45 500.21 590.55 522.56 593.59 524.19 601.65 501.94"/><polygon class="cls-3" points="596.8 499.33 593.59 497.6 585.7 519.94 588.73 521.58 596.8 499.33"/><rect class="cls-3" x="397.18" y="344.95" width="0.46" height="40.62" transform="translate(1093.73 315.91) rotate(118.32)"/><rect class="cls-3" x="396.35" y="378.8" width="0.46" height="24.17" transform="translate(1115 354.26) rotate(118.3)"/><path class="cls-3" d="M444.1,370.76c.52-.43,1.52-.07,2.23.79s.88,1.92.36,2.35-1.51.07-2.23-.79S443.58,371.19,444.1,370.76Z" transform="translate(186.25 127.25)"/><path class="cls-3" d="M440.34,361.35c.51-.43,1.51-.07,2.23.79s.88,1.92.36,2.35-1.52.07-2.23-.8S439.82,361.78,440.34,361.35Z" transform="translate(186.25 127.25)"/><polygon class="cls-3" points="620.06 500.27 621.61 499.95 617.99 490.3 616.52 490.61 620.06 500.27"/><rect class="cls-3" x="439.02" y="366.36" width="0.2" height="10.89" transform="translate(351.01 1004.83) rotate(-101.78)"/><rect class="cls-3" x="435.44" y="357.1" width="0.2" height="10.51" transform="translate(355.95 989.94) rotate(-101.78)"/><path class="cls-3" d="M273.58,63.8c.93-.77,2.71-.14,4,1.41s1.57,3.41.64,4.18-2.7.13-4-1.42S272.66,64.56,273.58,63.8Z" transform="translate(186.25 127.25)"/><path class="cls-3" d="M266.88,47c.92-.76,2.71-.13,4,1.41s1.57,3.42.65,4.18-2.71.13-4-1.41S266,47.79,266.88,47Z" transform="translate(186.25 127.25)"/><polygon class="cls-3" points="441.5 195.07 444.27 194.49 437.81 177.31 435.19 177.85 441.5 195.07"/><rect class="cls-3" x="264.54" y="55.96" width="0.36" height="19.41" transform="translate(440.64 465.46) rotate(-101.76)"/><rect class="cls-3" x="258.16" y="39.46" width="0.36" height="18.73" transform="translate(449.44 438.94) rotate(-101.76)"/><path class="cls-3" d="M467.46,266.77c-1.39-.45-1.91-2.71-1.16-5s2.51-3.87,3.9-3.41,1.92,2.71,1.16,5.05S468.86,267.22,467.46,266.77Z" transform="translate(186.25 127.25)"/><path class="cls-3" d="M454.52,284.73c-1.4-.45-1.92-2.71-1.16-5.05s2.5-3.86,3.9-3.41,1.91,2.71,1.16,5.05S455.91,285.19,454.52,284.73Z" transform="translate(186.25 127.25)"/><polygon class="cls-3" points="669.92 410.34 667.51 407.86 653.98 425.85 656.26 428.2 669.92 410.34"/><rect class="cls-3" x="475" y="262.81" width="0.44" height="23.8" transform="matrix(-0.72, 0.7, -0.7, -0.72, 1193.67, 267.56)"/><rect class="cls-3" x="461.77" y="280.91" width="0.44" height="22.96" transform="translate(1183.29 307.15) rotate(135.8)"/><path class="cls-3" d="M370.27,360.36c-1.32-.08-2.27-1.93-2.13-4.13s1.31-3.92,2.62-3.84,2.27,1.94,2.13,4.13S371.58,360.44,370.27,360.36Z" transform="translate(186.25 127.25)"/><rect class="cls-3" x="378.58" y="354.86" width="0.39" height="21.34" transform="translate(1074.48 360.33) rotate(121.45)"/><path class="cls-3" d="M387,370.76l-3.13-1.92s-5.09,3.63-8.18,1.74a18.55,18.55,0,0,1-4.13-3.1s2.47,3.95,6.6,5S384.26,369.83,387,370.76Z" transform="translate(186.25 127.25)"/><path class="cls-3" d="M484.84,277.12c-.8-.32-1-1.64-.49-2.94s1.62-2.09,2.42-1.77,1,1.64.48,2.94S485.64,277.44,484.84,277.12Z" transform="translate(186.25 127.25)"/><polygon class="cls-3" points="670.7 404.09 670.9 403.94 679.96 414.44 679.77 414.59 670.7 404.09"/><path class="cls-3" d="M493.11,286.86l-1.56-1.8s-3.9,1.14-5.44-.65a12.29,12.29,0,0,1-1.94-2.72,8,8,0,0,0,3.09,4.38C489.62,287.56,491.62,285.75,493.11,286.86Z" transform="translate(186.25 127.25)"/><path class="cls-3" d="M410.6,241c-2.88-2-2.53-7.47.77-12.28s8.3-7.11,11.18-5.14,2.52,7.47-.78,12.28S413.47,243,410.6,241Z" transform="translate(186.25 127.25)"/><rect class="cls-3" x="422.37" y="236.07" width="1.04" height="56.49" transform="translate(1106.41 429.31) rotate(152.33)"/><path class="cls-3" d="M434.35,287.29l-4.51-8.6s-16.48,1.33-20.94-7.17-5.16-12.65-5.16-12.65.23,12.31,8.21,20.31S429.51,281.55,434.35,287.29Z" transform="translate(186.25 127.25)"/><path class="cls-3" d="M418.12,209c-1-.2-1.48-1.68-1.15-3.3s1.4-2.78,2.37-2.58,1.48,1.68,1.15,3.31S419.09,209.16,418.12,209Z" transform="translate(186.25 127.25)"/><rect class="cls-3" x="423.76" y="205.69" width="0.29" height="16.05" transform="translate(1044.94 150.36) rotate(129.57)"/><path class="cls-3" d="M429.43,218.48l-2.12-1.76s-4.18,2.16-6.28.42a14,14,0,0,1-2.74-2.74,9.31,9.31,0,0,0,4.38,4.42C425.64,220,427.53,217.51,429.43,218.48Z" transform="translate(186.25 127.25)"/><path class="cls-3" d="M317.25,144.91c-.64-.13-1-1.1-.75-2.17s.91-1.82,1.55-1.69,1,1.1.75,2.17S317.89,145,317.25,144.91Z" transform="translate(186.25 127.25)"/><rect class="cls-3" x="320.95" y="142.77" width="0.19" height="10.53" transform="translate(825.88 122.04) rotate(129.56)"/><path class="cls-3" d="M324.67,151.15l-1.4-1.15s-2.73,1.42-4.11.28a9.28,9.28,0,0,1-1.8-1.8,6.18,6.18,0,0,0,2.87,2.9C322.18,152.18,323.42,150.52,324.67,151.15Z" transform="translate(186.25 127.25)"/><path class="cls-3" d="M501.09,304a4.06,4.06,0,0,0-1.08.38c-.64-1.17-1.24-2.27-1.76-3.24a24.48,24.48,0,0,0,1.18-2.53,8.6,8.6,0,0,0-.16-5.81c-.46-1.59-1.84-4.15-3.48-4.91a.5.5,0,0,0-.32,0c-.47.08-1.12,1.07-1.3,2.28-.51,3.31.44,5.61,2,8.4,0,0,.13.23.3.56-1.54,2.72-3.69,6.35-2.62,10a7.44,7.44,0,0,0,3.43,4.32,7.28,7.28,0,0,0,5.36.7h0a7,7,0,0,0,1.57-.7c.84,1.56,1.42,2.65,1.51,2.8,2.57,4.67-2.23,5.83-3.25,5a1.86,1.86,0,0,0,1.43-2.36,1.94,1.94,0,0,0-3.61-.5c-1.11,2,1.47,5.3,5,3.46,1.61-.86,2.82-2.68,1.3-5.42,0-.08-.76-1.4-1.8-3.32a4.9,4.9,0,0,0,1.75-5.47C505.47,304.54,503.1,303.57,501.09,304Zm-4.67-6.25a7.49,7.49,0,0,1-1-3.62c0-1.24.19-3.17,1.26-3.44s1.63,1.32,1.6,2.88a8.17,8.17,0,0,1-.76,3.4c-.19.45-.45.95-.75,1.5Zm5.84,15.91a5.42,5.42,0,0,1-4.12-.38,5.16,5.16,0,0,1-2.71-5,12,12,0,0,1,1.72-5.05l.76-1.45c.47.87,1,1.87,1.57,2.92a4.4,4.4,0,0,0-1.19,5.57,3.11,3.11,0,0,0,3.26,1.74c.08,0,.16,0,.17-.17s-.21-.16-.3-.17a2,2,0,0,1-.82-.21,2.6,2.6,0,0,1-1.28-3.08,2.71,2.71,0,0,1,1.25-1.65c1.17,2.16,2.36,4.38,3.3,6.13A8.64,8.64,0,0,1,502.26,313.66Zm3-5.1a3.33,3.33,0,0,1-.9,3.93l-3.25-6A3.26,3.26,0,0,1,505.29,308.56Z" transform="translate(186.25 127.25)"/><path class="cls-3" d="M412.22,300.6a13.76,13.76,0,0,0-3.15,2.11l-8.23-8.91a76.71,76.71,0,0,0,1.69-9c.68-8.67-2.42-13.54-5.23-18.36s-9.22-11.73-15.06-12.85a1.78,1.78,0,0,0-1.05.16c-1.43.65-2.7,4.32-2.31,8.36,1.08,10.93,6,17.52,13.15,25.14l1.43,1.55c-2.71,9.91-6.63,23.22-.21,34.14a24.59,24.59,0,0,0,14.45,11c5.45,1.43,12.58,1,17.66-2.15h0a22.47,22.47,0,0,0,4.41-3.51l7.11,7.72c12,12.77-2.37,20.39-6.33,18.47,1.22-.69,5.59-4,2.65-8.69-3.32-5.34-10.49-4.32-11.93,1.35-1.86,7.37,9,15.7,18.6,7,4.44-4,6.8-10.83-.28-18.32l-8.42-9.12a16.09,16.09,0,0,0,1.12-18.85C426.61,298.75,418.26,297.61,412.22,300.6Zm-20-16.13a24.32,24.32,0,0,1-6-10.73c-1.14-3.93-2-10.27,1.21-12,3.33-1.83,6.28,2.91,7.45,7.89.6,2.58,1.18,5,.32,11.45a46.07,46.07,0,0,1-1.15,5.4Zm31.56,46a17.84,17.84,0,0,1-13.43,2.15c-7.81-2-11.44-7.87-12.69-13.68-1.1-5.18-.29-10.67,1.36-17.48.36-1.49.81-3.31,1.26-5.23l7.36,8a14.54,14.54,0,0,0,.74,18.73c3.93,4,8.83,4.5,11.82,2.9a.6.6,0,0,0,.39-.7c-.11-.46-.8-.34-1.09-.27a7.28,7.28,0,0,1-2.79,0,8.53,8.53,0,0,1-6.57-8.78,9,9,0,0,1,2.65-6.27c5.46,5.95,11.06,12,15.48,16.84A24.71,24.71,0,0,1,423.79,330.43Zm5.5-18.71c2.65,3.92,3.65,8.51.33,13.26L414.4,308.49A10.72,10.72,0,0,1,429.29,311.72Z" transform="translate(186.25 127.25)"/><path class="cls-3" d="M392.6,247.3a3.67,3.67,0,0,0,1-.31c.52,1.06,1,2.06,1.45,2.92a21.46,21.46,0,0,0-1.11,2.21,7.58,7.58,0,0,0,0,5.14c.36,1.42,1.5,3.72,2.92,4.45a.49.49,0,0,0,.29,0c.42-.06,1-.91,1.22-2,.55-2.9-.22-5-1.5-7.48l-.25-.51c1.45-2.36,3.46-5.5,2.63-8.8a6.63,6.63,0,0,0-2.9-3.93,6.44,6.44,0,0,0-4.73-.78h0a5.71,5.71,0,0,0-1.4.58c-.7-1.41-1.18-2.39-1.26-2.53-2.13-4.21,2.16-5.09,3-4.3a1.66,1.66,0,0,0-1.34,2.05,1.72,1.72,0,0,0,3.18.55c1-1.77-1.14-4.74-4.27-3.21-1.45.71-2.57,2.28-1.31,4.75l1.49,3a4.33,4.33,0,0,0-1.71,4.79C388.74,246.69,390.81,247.62,392.6,247.3Zm3.94,5.67a6.59,6.59,0,0,1,.74,3.23c0,1.1-.27,2.8-1.22,3s-1.4-1.23-1.33-2.6a7.07,7.07,0,0,1,.78-3,11.65,11.65,0,0,1,.71-1.31Zm-4.68-14.25a4.81,4.81,0,0,1,3.63.46,4.56,4.56,0,0,1,2.24,4.49,10.36,10.36,0,0,1-1.67,4.41l-.71,1.26-1.3-2.62a3.92,3.92,0,0,0,1.22-4.9,2.76,2.76,0,0,0-2.83-1.64c-.08,0-.15,0-.16.15s.18.15.26.16a1.73,1.73,0,0,1,.72.21,2.29,2.29,0,0,1,1,2.76,2.41,2.41,0,0,1-1.16,1.42l-2.73-5.51A6.81,6.81,0,0,1,391.86,238.72ZM389,243.14a2.94,2.94,0,0,1,.91-3.45l2.69,5.41A2.89,2.89,0,0,1,389,243.14Z" transform="translate(186.25 127.25)"/><path class="cls-3" d="M366.61,340a2.88,2.88,0,0,0,.73-.06c.18.82.36,1.59.52,2.27a13.2,13.2,0,0,0-1.14,1.33,5.36,5.36,0,0,0-.88,3.55,5.47,5.47,0,0,0,1.28,3.57.4.4,0,0,0,.19.07c.3,0,.86-.46,1.18-1.17a7.62,7.62,0,0,0,.2-5.42,3.28,3.28,0,0,0-.09-.4c1.4-1.39,3.31-3.22,3.29-5.64a4.79,4.79,0,0,0-1.36-3.21,4.58,4.58,0,0,0-3.14-1.32h0a4.44,4.44,0,0,0-1.06.16c-.25-1.09-.42-1.84-.45-1.95-.77-3.26,2.34-3.16,2.81-2.47a1.18,1.18,0,0,0-1.27,1.19,1.22,1.22,0,0,0,2.11.91c1-1,0-3.46-2.42-2.93a2.26,2.26,0,0,0-1.7,3.07c0,.05.23,1,.53,2.32a3.07,3.07,0,0,0-2,3A2.92,2.92,0,0,0,366.61,340Zm1.79,4.57a4.64,4.64,0,0,1,0,2.36c-.18.76-.65,1.89-1.34,1.87s-.77-1.08-.49-2a5.09,5.09,0,0,1,1-1.94,9.06,9.06,0,0,1,.7-.78C368.35,344.33,368.39,344.51,368.4,344.55Zm-.87-10.63a3.45,3.45,0,0,1,2.43.92,3.25,3.25,0,0,1,.81,3.48,7.57,7.57,0,0,1-1.89,2.77l-.7.75-.47-2a2.77,2.77,0,0,0,1.66-3.18,1.94,1.94,0,0,0-1.68-1.6.1.1,0,0,0-.13.08c0,.08.1.13.15.14a1.38,1.38,0,0,1,.46.27,1.64,1.64,0,0,1,.26,2.08,1.69,1.69,0,0,1-1,.79c-.34-1.5-.69-3.05-1-4.27A4.7,4.7,0,0,1,367.53,333.92Zm-2.69,2.59a2.08,2.08,0,0,1,1.2-2.24c.28,1.23.63,2.72,1,4.19A2.05,2.05,0,0,1,364.84,336.51Z" transform="translate(186.25 127.25)"/><path class="cls-3" d="M459.35,266.24a2.36,2.36,0,0,0,.43-.58l2.05,1.09a13.79,13.79,0,0,0,.27,1.74,5.33,5.33,0,0,0,2.11,3,5.39,5.39,0,0,0,3.53,1.37.32.32,0,0,0,.18-.1c.22-.2.21-.95-.11-1.65a7.64,7.64,0,0,0-4-3.71l-.36-.19c-.14-2-.27-4.61-2.12-6.18a4.71,4.71,0,0,0-3.31-1.07,4.59,4.59,0,0,0-3.05,1.51h0a4.28,4.28,0,0,0-.57.91l-1.78-.94c-3-1.55-.86-3.83,0-3.74a1.17,1.17,0,0,0,.07,1.74,1.22,1.22,0,0,0,2.07-1c-.13-1.45-2.62-2.26-3.8-.08-.55,1-.54,2.38,1.21,3.29l2.1,1.11a3.07,3.07,0,0,0,1,3.47A2.9,2.9,0,0,0,459.35,266.24Zm4.63,1.65a4.72,4.72,0,0,1,1.76,1.56c.45.64,1,1.73.54,2.25s-1.32-.13-1.85-1a5.08,5.08,0,0,1-.78-2.05,8.92,8.92,0,0,1-.13-1Zm-8.61-6.3a3.42,3.42,0,0,1,2.29-1.24,3.27,3.27,0,0,1,3.16,1.67,7.72,7.72,0,0,1,.86,3.24c0,.29.06.65.1,1l-1.84-1a2.78,2.78,0,0,0-1.31-3.33,2,2,0,0,0-2.32.22.11.11,0,0,0,0,.15c.05.08.17,0,.22,0a1.4,1.4,0,0,1,.5-.17,1.63,1.63,0,0,1,1.74,1.17,1.66,1.66,0,0,1-.08,1.3l-3.86-2.06A4.85,4.85,0,0,1,455.37,261.59Zm.19,3.73a2.09,2.09,0,0,1-.9-2.38l3.79,2A2,2,0,0,1,455.56,265.32Z" transform="translate(186.25 127.25)"/><path class="cls-3" d="M445.68,327.06a2.34,2.34,0,0,0,.56-.46l1.72,1.57a15.17,15.17,0,0,0-.18,1.75,6.42,6.42,0,0,0,4.39,5.61.26.26,0,0,0,.19,0c.27-.14.45-.86.31-1.63a7.67,7.67,0,0,0-2.92-4.57l-.3-.27c.35-1.94.88-4.54-.52-6.52a4.72,4.72,0,0,0-2.94-1.86,4.6,4.6,0,0,0-3.33.7h0a4.27,4.27,0,0,0-.78.74l-1.48-1.35c-2.5-2.24.11-3.93.9-3.63a1.17,1.17,0,0,0-.36,1.7,1.22,1.22,0,0,0,2.25-.45c.23-1.43-2-2.84-3.66-1a2.26,2.26,0,0,0,.35,3.49l1.76,1.6a3.07,3.07,0,0,0,.09,3.61A2.91,2.91,0,0,0,445.68,327.06Zm4.07,2.74a4.75,4.75,0,0,1,1.32,1.95c.28.73.54,1.93,0,2.31s-1.25-.45-1.55-1.38a5,5,0,0,1-.25-2.18,7.67,7.67,0,0,1,.13-1.05ZM443,321.56a3.42,3.42,0,0,1,2.53-.63,3.24,3.24,0,0,1,2.64,2.4,7.53,7.53,0,0,1,0,3.36c-.05.28-.1.64-.15,1l-1.54-1.4a2.77,2.77,0,0,0-.45-3.56,2,2,0,0,0-2.3-.36.12.12,0,0,0-.06.14c0,.09.16.05.21,0a1.51,1.51,0,0,1,.53,0,1.64,1.64,0,0,1,1.4,1.57,1.74,1.74,0,0,1-.4,1.23l-3.23-2.95A4.92,4.92,0,0,1,443,321.56Zm-.74,3.66a2.09,2.09,0,0,1-.28-2.52l3.17,2.89A2.05,2.05,0,0,1,442.24,325.22Z" transform="translate(186.25 127.25)"/><path class="cls-3" d="M332.32,189.13a6.89,6.89,0,0,0,1.56-1l4,4.43A41.65,41.65,0,0,0,337,197c-.38,4.27,1.12,6.68,2.48,9.07s4.46,5.82,7.33,6.4a.83.83,0,0,0,.52-.07c.71-.31,1.35-2.11,1.18-4.1-.47-5.38-2.84-8.65-6.32-12.44l-.7-.77c1.39-4.86,3.4-11.38.3-16.8a12.1,12.1,0,0,0-7-5.49,11.8,11.8,0,0,0-8.7.95h0a11.62,11.62,0,0,0-2.19,1.71c-1.92-2.14-3.25-3.63-3.45-3.84-5.82-6.35,1.28-10,3.22-9.05-.6.33-2.77,1.91-1.35,4.26,1.6,2.64,5.13,2.18,5.87-.6,1-3.61-4.34-7.77-9.11-3.54-2.21,2-3.4,5.29,0,9,.1.1,1.73,1.92,4.1,4.54a7.89,7.89,0,0,0-.66,9.26C325.23,190,329.33,190.57,332.32,189.13Zm9.74,8.05a11.92,11.92,0,0,1,2.88,5.32c.54,1.94.91,5.06-.66,5.9s-3.07-1.47-3.62-3.93a12.87,12.87,0,0,1-.09-5.63,21.51,21.51,0,0,1,.6-2.65ZM326.8,174.39a8.77,8.77,0,0,1,6.62-1,8.36,8.36,0,0,1,6.16,6.8c.51,2.55.09,5.25-.77,8.59-.18.73-.41,1.63-.65,2.57l-3.57-4a7.14,7.14,0,0,0-.26-9.22c-1.91-2-4.32-2.27-5.8-1.5a.29.29,0,0,0-.19.34c.05.23.39.18.53.15a3.34,3.34,0,0,1,1.37,0,4.21,4.21,0,0,1,3.19,4.36,4.41,4.41,0,0,1-1.34,3.06c-2.66-2.95-5.37-6-7.52-8.37A12.49,12.49,0,0,1,326.8,174.39ZM324,183.56a5.35,5.35,0,0,1-.09-6.52l7.39,8.2A5.27,5.27,0,0,1,324,183.56Z" transform="translate(186.25 127.25)"/><path class="cls-3" d="M372.63,286a2.61,2.61,0,0,0,.52-.65l2.29,1.33a17.58,17.58,0,0,0,.23,2,6.09,6.09,0,0,0,2.28,3.48c.87.81,2.67,1.85,4,1.7a.38.38,0,0,0,.21-.1c.26-.22.28-1.07-.06-1.89-.93-2.2-2.37-3.26-4.36-4.38l-.4-.23c-.07-2.24-.12-5.26-2.16-7.12a5.39,5.39,0,0,0-3.72-1.36,5.23,5.23,0,0,0-3.53,1.59h0a5,5,0,0,0-.7,1l-2-1.15c-3.32-1.89-.83-4.4.12-4.26a1.33,1.33,0,0,0,0,2,1.39,1.39,0,0,0,2.4-1.05c-.09-1.65-2.89-2.68-4.33-.25-.66,1.12-.71,2.69,1.24,3.79l2.35,1.36a3.51,3.51,0,0,0,1,4C369.76,287.3,371.57,287,372.63,286Zm5.21,2.06a5.3,5.3,0,0,1,1.93,1.85c.49.75,1.08,2,.53,2.58s-1.5-.2-2.06-1.16a5.86,5.86,0,0,1-.81-2.36,9.86,9.86,0,0,1-.11-1.2Zm-9.54-7.52a3.9,3.9,0,0,1,2.66-1.32,3.7,3.7,0,0,1,3.52,2,8.7,8.7,0,0,1,.85,3.73c0,.33,0,.74.07,1.17l-2-1.2a3.16,3.16,0,0,0-1.36-3.85,2.26,2.26,0,0,0-2.65.16.12.12,0,0,0,0,.17c.05.09.18,0,.24,0a1.65,1.65,0,0,1,.58-.18,1.87,1.87,0,0,1,1.94,1.41,2,2,0,0,1-.15,1.47l-4.31-2.5A5.22,5.22,0,0,1,368.3,280.53Zm.06,4.24a2.36,2.36,0,0,1-.92-2.73l4.23,2.45A2.34,2.34,0,0,1,368.36,284.77Z" transform="translate(186.25 127.25)"/><path class="cls-3" d="M431.14,251a4.26,4.26,0,0,0,1-.41l1.78,3a23.82,23.82,0,0,0-1,2.45,8.08,8.08,0,0,0,.35,5.49c.49,1.5,1.89,3.87,3.46,4.54a.48.48,0,0,0,.31,0c.44-.09,1-1.05,1.16-2.21.36-3.15-.61-5.31-2.17-7.89l-.31-.53c1.37-2.63,3.29-6.13,2.14-9.61a7.1,7.1,0,0,0-3.4-4,6.89,6.89,0,0,0-5.11-.47h0a6.85,6.85,0,0,0-1.46.72l-1.53-2.61c-2.59-4.33,1.92-5.6,2.91-4.82a1.77,1.77,0,0,0-1.27,2.29,1.84,1.84,0,0,0,3.44.35c1-2-1.58-5-4.82-3.11-1.49.87-2.57,2.64-1,5.18l1.81,3.09a4.63,4.63,0,0,0-1.46,5.24C427,250.59,429.26,251.42,431.14,251Zm4.65,5.76a7,7,0,0,1,1,3.39c.09,1.18-.07,3-1.07,3.31s-1.59-1.2-1.62-2.68a7.58,7.58,0,0,1,.61-3.24,13.51,13.51,0,0,1,.66-1.46Zm-6.09-14.88a5.11,5.11,0,0,1,3.92.22,4.87,4.87,0,0,1,2.74,4.62,11.31,11.31,0,0,1-1.45,4.85c-.19.4-.43.88-.67,1.4l-1.59-2.71a4.2,4.2,0,0,0,.94-5.33,3,3,0,0,0-3.16-1.53.17.17,0,0,0-.15.17c0,.14.21.14.29.14a2,2,0,0,1,.78.18,2.45,2.45,0,0,1,1.32,2.87,2.55,2.55,0,0,1-1.13,1.61c-1.17-2-2.38-4.07-3.33-5.69A6.87,6.87,0,0,1,429.7,241.83ZM427,246.77a3.14,3.14,0,0,1,.72-3.76l3.28,5.58A3.1,3.1,0,0,1,427,246.77Z" transform="translate(186.25 127.25)"/><path class="cls-3" d="M337.1,277.07c-.56-.06-.94-.86-.84-1.8s.62-1.66,1.18-1.6.94.86.85,1.8S337.66,277.13,337.1,277.07Z" transform="translate(186.25 127.25)"/><path class="cls-3" d="M333.7,284.86c-.56-.05-.94-.86-.85-1.8s.63-1.65,1.19-1.6.94.87.85,1.8S334.26,284.92,333.7,284.86Z" transform="translate(186.25 127.25)"/><polygon class="cls-3" points="530.76 409.13 529.65 408.4 526.03 416.25 527.08 416.94 530.76 409.13"/><polygon class="cls-3" points="529.08 408.02 527.98 407.28 524.36 415.13 525.4 415.83 529.08 408.02"/><rect class="cls-3" x="340.57" y="274.85" width="0.17" height="9.14" transform="translate(948.15 277.53) rotate(123.6)"/><rect class="cls-3" x="337.04" y="282.72" width="0.17" height="8.82" transform="translate(949.12 292.58) rotate(123.61)"/><path class="cls-3" d="M456,369.68c1,.51,1.12,2.29.26,4s-2.37,2.62-3.37,2.11-1.11-2.29-.26-4S455,369.17,456,369.68Z" transform="translate(186.25 127.25)"/><path class="cls-3" d="M468,357.68c1,.51,1.12,2.29.26,4s-2.37,2.62-3.37,2.11-1.12-2.29-.26-4S467,357.17,468,357.68Z" transform="translate(186.25 127.25)"/><polygon class="cls-3" points="632.02 482.61 633.54 484.78 645.97 472.83 644.53 470.78 632.02 482.61"/><polygon class="cls-3" points="634.32 485.9 635.84 488.07 648.28 476.12 646.84 474.07 634.32 485.9"/><rect class="cls-3" x="450.97" y="353.61" width="0.33" height="18.23" transform="translate(59.77 451.8) rotate(-35.02)"/><rect class="cls-3" x="463.13" y="342.18" width="0.33" height="17.59" transform="translate(68.72 456.6) rotate(-35.01)"/><path class="cls-3" d="M481.38,303.31c-2.21-1.09-2.53-5-.7-8.69s5.11-5.83,7.32-4.73,2.53,5,.7,8.69S483.6,304.4,481.38,303.31Z" transform="translate(186.25 127.25)"/><path class="cls-3" d="M455.46,330.06c-2.22-1.09-2.53-5-.7-8.69s5.11-5.83,7.32-4.73,2.53,5,.7,8.69S457.67,331.15,455.46,330.06Z" transform="translate(186.25 127.25)"/><polygon class="cls-3" points="690.64 461.68 687.23 456.96 660.32 483.6 663.55 488.07 690.64 461.68"/><polygon class="cls-3" points="685.47 454.54 682.06 449.82 655.16 476.46 658.38 480.93 685.47 454.54"/><rect class="cls-3" x="492" y="298.4" width="0.73" height="40.03" transform="translate(1264.17 415.19) rotate(144.13)"/><rect class="cls-3" x="465.67" y="325.3" width="0.73" height="38.62" transform="translate(1231.87 477.98) rotate(144.12)"/><path class="cls-3" d="M384.56,225.25c.4,1.32-1.05,2.93-3.24,3.61s-4.31.16-4.72-1.15,1-2.93,3.25-3.6S384.15,223.94,384.56,225.25Z" transform="translate(186.25 127.25)"/><path class="cls-3" d="M405.28,225.5c.4,1.31-1,2.93-3.25,3.6s-4.3.17-4.71-1.14,1.05-2.93,3.25-3.61S404.87,224.19,405.28,225.5Z" transform="translate(186.25 127.25)"/><polygon class="cls-3" points="574.58 331.31 573.98 334.5 595.03 335.18 595.6 332.17 574.58 331.31"/><polygon class="cls-3" points="573.67 336.13 573.07 339.31 594.12 340 594.69 336.99 573.67 336.13"/><rect class="cls-3" x="386.26" y="203.9" width="0.41" height="22.27" transform="translate(232.92 59.21) rotate(10.7)"/><rect class="cls-3" x="406.91" y="204.92" width="0.41" height="21.48" transform="translate(233.38 55.4) rotate(10.7)"/><path class="cls-3" d="M351.81,267.68c2.19,1.13,2.45,5,.56,8.7s-5.19,5.75-7.39,4.62-2.45-5-.57-8.7S349.61,266.56,351.81,267.68Z" transform="translate(186.25 127.25)"/><path class="cls-3" d="M360,279.41c2.2,1.12,2.45,5,.57,8.69s-5.2,5.75-7.4,4.63-2.45-5-.56-8.7S357.82,278.28,360,279.41Z" transform="translate(186.25 127.25)"/><path class="cls-3" d="M366.07,288.05c2.2,1.13,2.46,5,.57,8.7s-5.19,5.75-7.39,4.62-2.45-5-.57-8.7S363.88,286.93,366.07,288.05Z" transform="translate(186.25 127.25)"/><path class="cls-3" d="M378.13,241.33c2.2,1.12,2.45,5,.57,8.69s-5.2,5.75-7.4,4.63-2.45-5-.56-8.7S375.93,240.2,378.13,241.33Z" transform="translate(186.25 127.25)"/><polygon class="cls-3" points="515.52 363.48 518.86 368.25 546.16 342.01 543 337.5 515.52 363.48"/><polygon class="cls-3" points="520.58 370.69 523.92 375.46 551.22 349.23 548.06 344.72 520.58 370.69"/><rect class="cls-3" x="347.82" y="230.14" width="0.73" height="64.91" transform="translate(98.6 374.53) rotate(-35.01)"/><rect class="cls-3" x="367.4" y="207.3" width="0.73" height="38.62" transform="translate(122.79 379.25) rotate(-35.01)"/><path class="cls-3" d="M373.76,219.6c.76.39.85,1.73.2,3s-1.79,2-2.54,1.59-.85-1.72-.2-3S373,219.21,373.76,219.6Z" transform="translate(186.25 127.25)"/><path class="cls-3" d="M382.82,210.54c.75.39.84,1.73.19,3s-1.78,2-2.54,1.59-.84-1.73-.2-3S382.06,210.15,382.82,210.54Z" transform="translate(186.25 127.25)"/><polygon class="cls-3" points="552.26 336.04 553.41 337.68 562.8 328.66 561.72 327.11 552.26 336.04"/><rect class="cls-3" x="369.94" y="207.47" width="0.25" height="13.76" transform="translate(130.24 378.41) rotate(-35.02)"/><rect class="cls-3" x="379.13" y="198.84" width="0.25" height="13.28" transform="matrix(0.82, -0.57, 0.57, 0.82, 136.98, 381.96)"/><path class="cls-3" d="M451,313c1-.2,2.11,1,2.46,2.7s-.19,3.23-1.21,3.44-2.11-1-2.45-2.7S450,313.22,451,313Z" transform="translate(186.25 127.25)"/><path class="cls-3" d="M452.68,297.53c1-.2,2.12,1,2.46,2.7s-.19,3.23-1.21,3.44-2.11-1-2.45-2.7S451.67,297.74,452.68,297.53Z" transform="translate(186.25 127.25)"/><polygon class="cls-3" points="621.65 435.88 623.98 436.57 626.05 420.87 623.84 420.22 621.65 435.88"/><rect class="cls-3" x="443.32" y="302.47" width="0.31" height="16.74" transform="translate(206.68 776.2) rotate(-73.66)"/><rect class="cls-3" x="445.3" y="287.36" width="0.31" height="16.15" transform="translate(222.88 767.04) rotate(-73.66)"/><path class="cls-3" d="M363.24,307.38c-.4.53-1.43.42-2.3-.24s-1.27-1.62-.88-2.14,1.43-.41,2.3.24S363.63,306.86,363.24,307.38Z" transform="translate(186.25 127.25)"/><path class="cls-3" d="M368.94,315.45c-.4.52-1.43.41-2.3-.25s-1.27-1.61-.88-2.14,1.43-.41,2.3.25S369.33,314.92,368.94,315.45Z" transform="translate(186.25 127.25)"/><polygon class="cls-3" points="558.72 430.17 557.32 430.82 562.95 439.14 564.27 438.52 558.72 430.17"/><rect class="cls-3" x="367.61" y="299.96" width="0.19" height="10.61" transform="translate(673.32 -30.25) rotate(64.76)"/><rect class="cls-3" x="373.15" y="308.28" width="0.19" height="10.24" transform="translate(684.08 -30.53) rotate(64.79)"/><path class="cls-3" d="M237.27,82.2c-1,1.37-3.61,1.16-5.89-.47s-3.35-4-2.38-5.41,3.61-1.16,5.89.47S238.24,80.83,237.27,82.2Z" transform="translate(186.25 127.25)"/><path class="cls-3" d="M252.4,102.44c-1,1.36-3.61,1.16-5.89-.47s-3.36-4-2.39-5.41,3.61-1.16,5.9.47S253.37,101.07,252.4,102.44Z" transform="translate(186.25 127.25)"/><polygon class="cls-3" points="446.84 197.39 443.31 199.17 458.26 220.05 461.6 218.37 446.84 197.39"/><rect class="cls-3" x="248.33" y="62.89" width="0.5" height="27.16" transform="translate(391.16 -52.66) rotate(63.23)"/><rect class="cls-3" x="263.04" y="83.82" width="0.5" height="26.2" transform="translate(417.58 -54.56) rotate(63.25)"/><path class="cls-3" d="M473.73,364.24c-.66-.35-.73-1.52-.16-2.63s1.57-1.72,2.23-1.38.74,1.51.16,2.62S474.4,364.58,473.73,364.24Z" transform="translate(186.25 127.25)"/><path class="cls-3" d="M465.79,372.16c-.67-.34-.74-1.52-.17-2.62s1.57-1.73,2.23-1.39.74,1.51.17,2.62S466.45,372.5,465.79,372.16Z" transform="translate(186.25 127.25)"/><polygon class="cls-3" points="666.75 500.98 665.75 499.54 657.51 507.43 658.46 508.79 666.75 500.98"/><rect class="cls-3" x="476.85" y="362.81" width="0.22" height="12.06" transform="translate(1265.42 525.91) rotate(145.12)"/><rect class="cls-3" x="468.79" y="370.78" width="0.22" height="11.64" transform="translate(1255.19 544.41) rotate(145.1)"/><path class="cls-3" d="M370,326.32c-.56.88-2.21.84-3.69-.1s-2.23-2.41-1.67-3.29,2.22-.85,3.7.09S370.58,325.43,370,326.32Z" transform="translate(186.25 127.25)"/><path class="cls-3" d="M380.14,338.44c-.56.88-2.21.84-3.69-.09s-2.23-2.42-1.67-3.3,2.21-.84,3.69.09S380.7,337.55,380.14,338.44Z" transform="translate(186.25 127.25)"/><polygon class="cls-3" points="570.41 445.26 568.27 446.49 578.3 459.02 580.33 457.86 570.41 445.26"/><rect class="cls-3" x="376.73" y="313.88" width="0.31" height="16.97" transform="translate(655.34 -37.68) rotate(60.17)"/><rect class="cls-3" x="386.59" y="326.45" width="0.31" height="16.37" transform="translate(671.02 -40.06) rotate(60.18)"/><path class="cls-3" d="M413.13,346.52c.95.23,1.42,1.71,1,3.31s-1.46,2.72-2.42,2.49-1.42-1.71-1-3.31S412.17,346.29,413.13,346.52Z" transform="translate(186.25 127.25)"/><rect class="cls-3" x="407.37" y="333.66" width="0.29" height="15.95" transform="translate(68.3 550.56) rotate(-48.81)"/><path class="cls-3" d="M402.16,336.74l2.06,1.81s4.21-2,6.25-.24a14,14,0,0,1,2.64,2.8,9.27,9.27,0,0,0-4.22-4.51C406,335.3,404,337.77,402.16,336.74Z" transform="translate(186.25 127.25)"/><path class="cls-3" d="M477.48,324.19c1.68.86,1.88,3.83.44,6.64s-4,4.39-5.65,3.53-1.87-3.84-.43-6.65S475.81,323.33,477.48,324.19Z" transform="translate(186.25 127.25)"/><rect class="cls-3" x="468.99" y="297.24" width="0.56" height="30.57" transform="translate(91.87 453.1) rotate(-35.02)"/><path class="cls-3" d="M461.53,301l3,4.3s8.75-1.85,11.73,2.41a26.94,26.94,0,0,1,3.65,6.43s-1-6.59-5.81-10.34S464.53,303.73,461.53,301Z" transform="translate(186.25 127.25)"/><path class="cls-3" d="M317.87,153.15c2.2,1.12,2.45,5,.57,8.69s-5.2,5.75-7.39,4.63-2.46-5-.57-8.7S315.67,152,317.87,153.15Z" transform="translate(186.25 127.25)"/><rect class="cls-3" x="306.75" y="117.85" width="0.73" height="40.03" transform="translate(162.72 328.4) rotate(-35.01)"/><path class="cls-3" d="M297,122.76l3.95,5.63s11.46-2.43,15.37,3.15,4.77,8.42,4.77,8.42-1.28-8.63-7.61-13.53S300.9,126.36,297,122.76Z" transform="translate(186.25 127.25)"/><path class="cls-3" d="M278.1,79c1,0,1.93,1.37,2,3.11s-.76,3.18-1.8,3.21-1.93-1.36-2-3.1S277.06,79.05,278.1,79Z" transform="translate(186.25 127.25)"/><rect class="cls-3" x="270.87" y="67.1" width="0.31" height="16.9" transform="translate(269.61 412.43) rotate(-63.74)"/><path class="cls-3" d="M264.2,72l2.61,1.29s3.75-3.23,6.33-2a15.24,15.24,0,0,1,3.47,2.15A9.81,9.81,0,0,0,271.05,70C267.71,69.5,266.38,72.55,264.2,72Z" transform="translate(186.25 127.25)"/><path class="cls-3" d="M383.43,308.37c.95.35,1.25,1.93.66,3.53s-1.83,2.61-2.79,2.26-1.25-1.93-.67-3.53S382.47,308,383.43,308.37Z" transform="translate(186.25 127.25)"/><rect class="cls-3" x="378.11" y="294.42" width="0.3" height="16.49" transform="translate(80.89 458.21) rotate(-42.01)"/><path class="cls-3" d="M373.36,297l1.9,2.11s4.56-1.57,6.44.52a14.11,14.11,0,0,1,2.37,3.2,9.57,9.57,0,0,0-3.78-5.15C377.45,296,375.15,298.27,373.36,297Z" transform="translate(186.25 127.25)"/><path class="cls-3" d="M446.28,256.39c.55.21.72,1.12.38,2s-1.05,1.51-1.61,1.3-.72-1.11-.38-2S445.73,256.19,446.28,256.39Z" transform="translate(186.25 127.25)"/><rect class="cls-3" x="443.21" y="248.34" width="0.17" height="9.51" transform="translate(130.72 488.72) rotate(-41.98)"/><path class="cls-3" d="M440.47,249.83l1.1,1.21s2.63-.9,3.71.3a8,8,0,0,1,1.37,1.85,5.52,5.52,0,0,0-2.18-3C442.83,249.25,441.5,250.57,440.47,249.83Z" transform="translate(186.25 127.25)"/><path class="cls-3" d="M349.65,292.51c.55.2.72,1.11.38,2s-1,1.51-1.61,1.31-.72-1.12-.38-2S349.1,292.31,349.65,292.51Z" transform="translate(186.25 127.25)"/><rect class="cls-3" x="346.59" y="284.46" width="0.17" height="9.51" transform="translate(81.77 433.5) rotate(-42)"/><path class="cls-3" d="M343.84,285.94l1.1,1.22s2.63-.9,3.71.3a8,8,0,0,1,1.37,1.85,5.56,5.56,0,0,0-2.18-3C346.2,285.36,344.87,286.68,343.84,285.94Z" transform="translate(186.25 127.25)"/><path class="cls-3" d="M255.68,81c-.65-.69-.24-2.14.91-3.23s2.62-1.42,3.27-.73.25,2.14-.91,3.23S256.33,81.71,255.68,81Z" transform="translate(186.25 127.25)"/><rect class="cls-3" x="257.48" y="80.24" width="0.28" height="15.39" transform="translate(715.62 231.01) rotate(164.49)"/><path class="cls-3" d="M259.35,94.71l-.71-2.55s-4.46-.59-5.16-3.11a13.59,13.59,0,0,1-.65-3.67,9,9,0,0,0,1,5.88C255.51,93.85,258.39,92.9,259.35,94.71Z" transform="translate(186.25 127.25)"/><path class="cls-3" d="M287,105.59c-.88-.35-1.12-1.83-.54-3.31s1.78-2.39,2.66-2,1.12,1.83.54,3.3S287.86,105.94,287,105.59Z" transform="translate(186.25 127.25)"/><rect class="cls-3" x="291.52" y="103.34" width="0.28" height="15.39" transform="translate(771.63 132.83) rotate(139.41)"/><path class="cls-3" d="M296.1,116.43l-1.72-2s-4.3,1.36-6-.63a13.43,13.43,0,0,1-2.14-3,8.93,8.93,0,0,0,3.42,4.89C292.26,117.28,294.46,115.2,296.1,116.43Z" transform="translate(186.25 127.25)"/><path class="cls-3" d="M300.83,142.52c-.88-.35-1.12-1.83-.54-3.3s1.77-2.4,2.66-2.05,1.12,1.83.54,3.31S301.72,142.87,300.83,142.52Z" transform="translate(186.25 127.25)"/><rect class="cls-3" x="305.38" y="140.27" width="0.28" height="15.39" transform="translate(820.07 188.89) rotate(139.43)"/><path class="cls-3" d="M310,153.37l-1.72-2s-4.3,1.36-6-.63a13.71,13.71,0,0,1-2.14-3,8.93,8.93,0,0,0,3.42,4.89C306.12,154.22,308.32,152.14,310,153.37Z" transform="translate(186.25 127.25)"/><path class="cls-3" d="M349.6,195.82c-.88-.35-1.13-1.83-.54-3.31s1.77-2.39,2.65-2,1.13,1.83.54,3.3S350.48,196.17,349.6,195.82Z" transform="translate(186.25 127.25)"/><rect class="cls-3" x="354.14" y="193.57" width="0.28" height="15.39" transform="translate(940.53 250.93) rotate(139.42)"/><path class="cls-3" d="M358.72,206.66l-1.72-2s-4.29,1.36-6-.63a13.43,13.43,0,0,1-2.14-3,9,9,0,0,0,3.41,4.89C354.89,207.51,357.09,205.43,358.72,206.66Z" transform="translate(186.25 127.25)"/><path class="cls-3" d="M391.32,197.35c-.87.37-2.09-.51-2.71-2s-.43-2.94.44-3.32,2.09.51,2.72,2S392.19,197,391.32,197.35Z" transform="translate(186.25 127.25)"/><rect class="cls-3" x="398.34" y="190.22" width="0.28" height="15.39" transform="translate(814.2 -56.01) rotate(94.64)"/><path class="cls-3" d="M405.44,198.62l-2.64-.22s-2.09,4-4.7,3.78a13.43,13.43,0,0,1-3.66-.65,8.92,8.92,0,0,0,5.87,1.07C403.31,201.93,403.41,198.9,405.44,198.62Z" transform="translate(186.25 127.25)"/><path class="cls-3" d="M359.35,237.25c-.87.38-2.08-.5-2.71-2s-.43-2.95.44-3.32,2.09.5,2.72,2S360.23,236.88,359.35,237.25Z" transform="translate(186.25 127.25)"/><rect class="cls-3" x="366.37" y="230.13" width="0.28" height="15.39" transform="translate(819.37 18.94) rotate(94.63)"/><path class="cls-3" d="M373.47,238.52l-2.64-.21s-2.09,4-4.7,3.78a13.56,13.56,0,0,1-3.66-.65,9,9,0,0,0,5.87,1.06C371.34,241.83,371.44,238.8,373.47,238.52Z" transform="translate(186.25 127.25)"/><path class="cls-3" d="M239.46,53.53c-1-1.06-.38-3.28,1.4-5s4-2.17,5-1.11.37,3.28-1.4,4.95S240.46,54.59,239.46,53.53Z" transform="translate(186.25 127.25)"/><rect class="cls-3" x="242.22" y="52.33" width="0.43" height="23.66" transform="matrix(-0.96, 0.27, -0.27, -0.96, 679.44, 188.44)"/><path class="cls-3" d="M245.1,74.58,244,70.66s-6.86-.91-7.94-4.78a21.16,21.16,0,0,1-1-5.63s-1,5,1.57,9S243.62,71.8,245.1,74.58Z" transform="translate(186.25 127.25)"/><path class="cls-3" d="M489.39,365.05c.27,1.41-1.41,2.93-3.77,3.39s-4.49-.3-4.76-1.71,1.4-2.92,3.76-3.39S489.11,363.64,489.39,365.05Z" transform="translate(186.25 127.25)"/><rect class="cls-3" x="492.27" y="343.03" width="0.43" height="23.25" transform="translate(309.2 0.49) rotate(16.73)"/><path class="cls-3" d="M495.73,344.59l-1.15,3.83s5.23,4.36,4.1,8.14a20.31,20.31,0,0,1-2.13,5.21s3.48-3.69,3.44-8.34S495.5,347.68,495.73,344.59Z" transform="translate(186.25 127.25)"/><path class="cls-3" d="M363.07,263.57c1.51.56,2,3.07,1,5.6s-2.92,4.13-4.43,3.57-2-3.07-1.05-5.6S361.56,263,363.07,263.57Z" transform="translate(186.25 127.25)"/><rect class="cls-3" x="354.67" y="241.42" width="0.48" height="26.16" transform="translate(106.98 428.83) rotate(-41.83)"/><path class="cls-3" d="M347.16,245.48l3,3.35s7.25-2.47,10.21.85a22.7,22.7,0,0,1,3.75,5.09s-1.5-5.5-6-8.19S350,247.51,347.16,245.48Z" transform="translate(186.25 127.25)"/><path class="cls-3" d="M277.19,106c-2.26-1-2.75-4.86-1.1-8.65s4.84-6,7.1-5.06,2.75,4.86,1.1,8.65S279.45,107,277.19,106Z" transform="translate(186.25 127.25)"/><rect class="cls-3" x="288.49" y="100.57" width="0.73" height="40.03" transform="translate(776.22 162.37) rotate(141.5)"/><path class="cls-3" d="M299.9,135.05l-4.29-5.39s-11.29,3.13-15.53-2.2-5.28-8.11-5.28-8.11,1.8,8.53,8.42,13S295.76,131.7,299.9,135.05Z" transform="translate(186.25 127.25)"/><path class="cls-3" d="M402.39,353.7c-1.42.09-2.7-1.75-2.86-4.12s.85-4.37,2.26-4.47,2.7,1.74,2.87,4.12S403.81,353.6,402.39,353.7Z" transform="translate(186.25 127.25)"/><rect class="cls-3" x="412.01" y="346.52" width="0.42" height="23.02" transform="translate(1092.83 253.52) rotate(113.91)"/><path class="cls-3" d="M421.7,362.46l-3.62-1.6s-4.92,4.6-8.5,3a20.3,20.3,0,0,1-4.85-2.73s3.19,3.87,7.76,4.41S418.7,361.85,421.7,362.46Z" transform="translate(186.25 127.25)"/><path class="cls-3" d="M442.37,268.29c-1.22-1.08-.75-3.61,1.05-5.66s4.26-2.84,5.48-1.76.75,3.61-1,5.66S443.59,269.37,442.37,268.29Z" transform="translate(186.25 127.25)"/><rect class="cls-3" x="446.53" y="266.59" width="0.48" height="26.43" transform="translate(1149.99 510.2) rotate(159.22)"/><path class="cls-3" d="M450.8,291.13l-1.61-4.25s-7.73-.31-9.32-4.51a23,23,0,0,1-1.69-6.16s-.58,5.72,2.67,9.89S448.88,288.19,450.8,291.13Z" transform="translate(186.25 127.25)"/><path class="cls-3" d="M327.47,251.74c-1.2-.82-1.07-3.12.3-5.14s3.45-3,4.66-2.17,1.07,3.12-.3,5.13S328.68,252.55,327.47,251.74Z" transform="translate(186.25 127.25)"/><rect class="cls-3" x="332.45" y="249.65" width="0.43" height="23.61" transform="translate(935.34 463.58) rotate(152.03)"/><path class="cls-3" d="M337.5,271l-1.9-3.58s-6.88.59-8.77-3a20.58,20.58,0,0,1-2.18-5.27s.12,5.14,3.47,8.47S335.47,268.64,337.5,271Z" transform="translate(186.25 127.25)"/></g></svg>